<?xml version="1.0" encoding="UTF-8" standalone="no"?>
<!-- Created with Inkscape (http://www.inkscape.org/) -->

<svg
   xmlns:dc="http://purl.org/dc/elements/1.1/"
   xmlns:cc="http://creativecommons.org/ns#"
   xmlns:rdf="http://www.w3.org/1999/02/22-rdf-syntax-ns#"
   xmlns:svg="http://www.w3.org/2000/svg"
   xmlns="http://www.w3.org/2000/svg"
   xmlns:sodipodi="http://sodipodi.sourceforge.net/DTD/sodipodi-0.dtd"
   xmlns:inkscape="http://www.inkscape.org/namespaces/inkscape"
   version="1.1"
   id="svg3713"
   xml:space="preserve"
   width="4493.3335"
   height="3178.6667"
   viewBox="0 0 4493.3335 3178.6667"
   sodipodi:docname="control-panel-corrected.svg"
   inkscape:version="0.92.4 (5da689c313, 2019-01-14)"><metadata
     id="metadata3719"><rdf:RDF><cc:Work
         rdf:about=""><dc:format>image/svg+xml</dc:format><dc:type
           rdf:resource="http://purl.org/dc/dcmitype/StillImage" /><dc:title></dc:title></cc:Work></rdf:RDF></metadata><defs
     id="defs3717"><clipPath
       clipPathUnits="userSpaceOnUse"
       id="clipPath3729"><path
         d="M 18127,700 H 31438 V 55808 H 18127 V 700"
         id="path3727"
         inkscape:connector-curvature="0" /></clipPath><clipPath
       clipPathUnits="userSpaceOnUse"
       id="clipPath4033"><path
         d="m 11986,700 h 6455 V 55808 H 11986 V 700"
         id="path4031"
         inkscape:connector-curvature="0" /></clipPath><clipPath
       clipPathUnits="userSpaceOnUse"
       id="clipPath4049"><path
         d="M 0,0 H 39732 V 56173 H 0 V 0"
         id="path4047"
         inkscape:connector-curvature="0" /></clipPath><clipPath
       clipPathUnits="userSpaceOnUse"
       id="clipPath4147"><path
         d="M 0,0 H 39732 V 56173 H 0 V 0"
         id="path4145"
         inkscape:connector-curvature="0" /></clipPath><clipPath
       clipPathUnits="userSpaceOnUse"
       id="clipPath4159"><path
         d="M 0,0 H 39732 V 56173 H 0 V 0"
         id="path4157"
         inkscape:connector-curvature="0" /></clipPath><clipPath
       clipPathUnits="userSpaceOnUse"
       id="clipPath4033-3"><path
         d="m 11986,700 h 6455 V 55808 H 11986 V 700"
         id="path4031-4"
         inkscape:connector-curvature="0" /></clipPath><clipPath
       clipPathUnits="userSpaceOnUse"
       id="clipPath3729-7"><path
         d="M 18127,700 H 31438 V 55808 H 18127 V 700"
         id="path3727-5"
         inkscape:connector-curvature="0" /></clipPath></defs><sodipodi:namedview
     pagecolor="#ffffff"
     bordercolor="#666666"
     borderopacity="1"
     objecttolerance="10"
     gridtolerance="10"
     guidetolerance="10"
     inkscape:pageopacity="0"
     inkscape:pageshadow="2"
     inkscape:window-width="1280"
     inkscape:window-height="961"
     id="namedview3715"
     showgrid="false"
     inkscape:zoom="0.20163204"
     inkscape:cx="2167.5779"
     inkscape:cy="1589.3334"
     inkscape:window-x="1272"
     inkscape:window-y="-8"
     inkscape:window-maximized="1"
     inkscape:current-layer="g3721" /><g
     id="g3721"
     inkscape:groupmode="layer"
     inkscape:label="Arcade XXL Drawing Overview v84"
     transform="matrix(0,-0.08,-0.08,0,4493.3333,3178.6667)"><g
       transform="translate(-1625.8644,-170.6681)"
       id="g3723"><g
         id="g3725"
         clip-path="url(#clipPath3729-7)"><path
           d="m 19052,55656 h -54 -54 -53 -53 -51 -50 -49 -47 -45 -43 -40 -38 -35 -32 -28 -25 -22 -18 -15 -11 -7 -3"
           style="fill:none;stroke:#000000;stroke-width:12;stroke-linecap:round;stroke-linejoin:round;stroke-miterlimit:10;stroke-dasharray:none;stroke-opacity:1"
           id="path3731"
           inkscape:connector-curvature="0" /><g
           id="g3733"
           transform="rotate(-90,14180.5,-9808)"><path
             d="m -708.5,0 c 0,-391.29376 317.20624,-708.5 708.5,-708.5 391.29376,0 708.5,317.20624 708.5,708.5 C 708.5,391.29376 391.29376,708.5 0,708.5 -391.29376,708.5 -708.5,391.29376 -708.5,0"
             style="fill:none;stroke:#000000;stroke-width:12;stroke-linecap:round;stroke-linejoin:round;stroke-miterlimit:10;stroke-dasharray:none;stroke-opacity:1"
             id="path3735"
             inkscape:connector-curvature="0" /></g><path
           d="m 18279,852 h 3 7 11 15 18 22 25 28 32 35 38 40 43 45 47 49 50 51 53 53 54 54"
           style="fill:none;stroke:#000000;stroke-width:12;stroke-linecap:round;stroke-linejoin:round;stroke-miterlimit:10;stroke-dasharray:none;stroke-opacity:1"
           id="path3737"
           inkscape:connector-curvature="0" /><g
           id="g3739"
           transform="rotate(-90,16330,-8650.5)"><path
             d="m -708.5,0 c 0,-391.29376 317.20624,-708.5 708.5,-708.5 391.29376,0 708.5,317.20624 708.5,708.5 C 708.5,391.29376 391.29376,708.5 0,708.5 -391.29376,708.5 -708.5,391.29376 -708.5,0"
             style="fill:none;stroke:#000000;stroke-width:12;stroke-linecap:round;stroke-linejoin:round;stroke-miterlimit:10;stroke-dasharray:none;stroke-opacity:1"
             id="path3741"
             inkscape:connector-curvature="0" /></g><g
           id="g3743"
           transform="rotate(-90,14172,-9799.5)"><path
             d="M 708.44751,8.62646 C 703.72418,396.52676 387.92905,708.5 0,708.5 -387.92905,708.5 -703.72418,396.52676 -708.44751,8.62646"
             style="fill:none;stroke:#000000;stroke-width:12;stroke-linecap:round;stroke-linejoin:round;stroke-miterlimit:10;stroke-dasharray:none;stroke-opacity:1"
             id="path3745"
             inkscape:connector-curvature="0" /></g><g
           id="g3747"
           transform="rotate(-90,18503,-6477.5)"><path
             d="m -590.5,0 c 0,-326.12418 264.37582,-590.5 590.5,-590.5 326.12418,0 590.5,264.37582 590.5,590.5 C 590.5,326.12418 326.12418,590.5 0,590.5 -326.12418,590.5 -590.5,326.12418 -590.5,0"
             style="fill:none;stroke:#000000;stroke-width:12;stroke-linecap:round;stroke-linejoin:round;stroke-miterlimit:10;stroke-dasharray:none;stroke-opacity:1"
             id="path3749"
             inkscape:connector-curvature="0" /></g><g
           id="g3751"
           transform="rotate(-90,16321.5,-8642)"><path
             d="M 708.44751,8.62646 C 703.72418,396.52676 387.92905,708.5 0,708.5 -387.92905,708.5 -703.72418,396.52676 -708.44751,8.62646"
             style="fill:none;stroke:#000000;stroke-width:12;stroke-linecap:round;stroke-linejoin:round;stroke-miterlimit:10;stroke-dasharray:none;stroke-opacity:1"
             id="path3753"
             inkscape:connector-curvature="0" /></g><g
           id="g3755"
           transform="rotate(-90,22944,-3571.5)"><path
             d="m -708.5,0 c 0,-391.29376 317.20624,-708.5 708.5,-708.5 391.29376,0 708.5,317.20624 708.5,708.5 C 708.5,391.29376 391.29376,708.5 0,708.5 -391.29376,708.5 -708.5,391.29376 -708.5,0"
             style="fill:none;stroke:#000000;stroke-width:12;stroke-linecap:round;stroke-linejoin:round;stroke-miterlimit:10;stroke-dasharray:none;stroke-opacity:1"
             id="path3757"
             inkscape:connector-curvature="0" /></g><g
           id="g3759"
           transform="rotate(-90,18494.5,-6469)"><path
             d="M 590.43732,8.60494 C 585.73383,331.33929 322.76862,590.5 0,590.5 -322.76862,590.5 -585.73383,331.33929 -590.43732,8.60494"
             style="fill:none;stroke:#000000;stroke-width:12;stroke-linecap:round;stroke-linejoin:round;stroke-miterlimit:10;stroke-dasharray:none;stroke-opacity:1"
             id="path3761"
             inkscape:connector-curvature="0" /></g><g
           id="g3763"
           transform="rotate(-90,23629.5,-690)"><path
             d="m -708.5,0 c 0,-391.29376 317.20624,-708.5 708.5,-708.5 391.29376,0 708.5,317.20624 708.5,708.5 C 708.5,391.29376 391.29376,708.5 0,708.5 -391.29376,708.5 -708.5,391.29376 -708.5,0"
             style="fill:none;stroke:#000000;stroke-width:12;stroke-linecap:round;stroke-linejoin:round;stroke-miterlimit:10;stroke-dasharray:none;stroke-opacity:1"
             id="path3765"
             inkscape:connector-curvature="0" /></g><g
           id="g3767"
           transform="rotate(-90,22935.5,-3563)"><path
             d="M 708.44751,8.62646 C 703.72418,396.52676 387.92905,708.5 0,708.5 -387.92905,708.5 -703.72418,396.52676 -708.44751,8.62646"
             style="fill:none;stroke:#000000;stroke-width:12;stroke-linecap:round;stroke-linejoin:round;stroke-miterlimit:10;stroke-dasharray:none;stroke-opacity:1"
             id="path3769"
             inkscape:connector-curvature="0" /></g><g
           id="g3771"
           transform="rotate(-90,29794.5,3279)"><path
             d="m -708.5,0 c 0,-391.29376 317.20624,-708.5 708.5,-708.5 391.29376,0 708.5,317.20624 708.5,708.5 C 708.5,391.29376 391.29376,708.5 0,708.5 -391.29376,708.5 -708.5,391.29376 -708.5,0"
             style="fill:none;stroke:#000000;stroke-width:12;stroke-linecap:round;stroke-linejoin:round;stroke-miterlimit:10;stroke-dasharray:none;stroke-opacity:1"
             id="path3773"
             inkscape:connector-curvature="0" /></g><g
           id="g3775"
           transform="rotate(-90,23621,-681.5)"><path
             d="M 708.44751,8.62646 C 703.72418,396.52676 387.92905,708.5 0,708.5 -387.92905,708.5 -703.72418,396.52676 -708.44751,8.62646"
             style="fill:none;stroke:#000000;stroke-width:12;stroke-linecap:round;stroke-linejoin:round;stroke-miterlimit:10;stroke-dasharray:none;stroke-opacity:1"
             id="path3777"
             inkscape:connector-curvature="0" /></g><g
           id="g3779"
           transform="rotate(-90,31223.5,5086)"><path
             d="m -708.5,0 c 0,-391.29376 317.20624,-708.5 708.5,-708.5 391.29376,0 708.5,317.20624 708.5,708.5 C 708.5,391.29376 391.29376,708.5 0,708.5 -391.29376,708.5 -708.5,391.29376 -708.5,0"
             style="fill:none;stroke:#000000;stroke-width:12;stroke-linecap:round;stroke-linejoin:round;stroke-miterlimit:10;stroke-dasharray:none;stroke-opacity:1"
             id="path3781"
             inkscape:connector-curvature="0" /></g><g
           id="g3783"
           transform="rotate(-90,29786,3287.5)"><path
             d="M 708.44751,8.62646 C 703.72418,396.52676 387.92905,708.5 0,708.5 -387.92905,708.5 -703.72418,396.52676 -708.44751,8.62646"
             style="fill:none;stroke:#000000;stroke-width:12;stroke-linecap:round;stroke-linejoin:round;stroke-miterlimit:10;stroke-dasharray:none;stroke-opacity:1"
             id="path3785"
             inkscape:connector-curvature="0" /></g><g
           id="g3787"
           transform="rotate(-90,36881.5,11901)"><path
             d="m -708.5,0 c 0,-391.29376 317.20624,-708.5 708.5,-708.5 391.29376,0 708.5,317.20624 708.5,708.5 C 708.5,391.29376 391.29376,708.5 0,708.5 -391.29376,708.5 -708.5,391.29376 -708.5,0"
             style="fill:none;stroke:#000000;stroke-width:12;stroke-linecap:round;stroke-linejoin:round;stroke-miterlimit:10;stroke-dasharray:none;stroke-opacity:1"
             id="path3789"
             inkscape:connector-curvature="0" /></g><g
           id="g3791"
           transform="rotate(-90,31215,5094.5)"><path
             d="M 708.44751,8.62646 C 703.72418,396.52676 387.92905,708.5 0,708.5 -387.92905,708.5 -703.72418,396.52676 -708.44751,8.62646"
             style="fill:none;stroke:#000000;stroke-width:12;stroke-linecap:round;stroke-linejoin:round;stroke-miterlimit:10;stroke-dasharray:none;stroke-opacity:1"
             id="path3793"
             inkscape:connector-curvature="0" /></g><g
           id="g3795"
           transform="rotate(-90,36645,10129.5)"><path
             d="m -708.5,0 c 0,-391.29376 317.20624,-708.5 708.5,-708.5 391.29376,0 708.5,317.20624 708.5,708.5 C 708.5,391.29376 391.29376,708.5 0,708.5 -391.29376,708.5 -708.5,391.29376 -708.5,0"
             style="fill:none;stroke:#000000;stroke-width:12;stroke-linecap:round;stroke-linejoin:round;stroke-miterlimit:10;stroke-dasharray:none;stroke-opacity:1"
             id="path3797"
             inkscape:connector-curvature="0" /></g><g
           id="g3799"
           transform="rotate(-90,36873,11909.5)"><path
             d="M 708.44751,8.62646 C 703.72418,396.52676 387.92905,708.5 0,708.5 -387.92905,708.5 -703.72418,396.52676 -708.44751,8.62646"
             style="fill:none;stroke:#000000;stroke-width:12;stroke-linecap:round;stroke-linejoin:round;stroke-miterlimit:10;stroke-dasharray:none;stroke-opacity:1"
             id="path3801"
             inkscape:connector-curvature="0" /></g><g
           id="g3803"
           transform="rotate(-90,39054.5,14074)"><path
             d="m -590.5,0 c 0,-326.12418 264.37582,-590.5 590.5,-590.5 326.12418,0 590.5,264.37582 590.5,590.5 C 590.5,326.12418 326.12418,590.5 0,590.5 -326.12418,590.5 -590.5,326.12418 -590.5,0"
             style="fill:none;stroke:#000000;stroke-width:12;stroke-linecap:round;stroke-linejoin:round;stroke-miterlimit:10;stroke-dasharray:none;stroke-opacity:1"
             id="path3805"
             inkscape:connector-curvature="0" /></g><g
           id="g3807"
           transform="rotate(-90,36636.5,10138)"><path
             d="M 708.44751,8.62646 C 703.72418,396.52676 387.92905,708.5 0,708.5 -387.92905,708.5 -703.72418,396.52676 -708.44751,8.62646"
             style="fill:none;stroke:#000000;stroke-width:12;stroke-linecap:round;stroke-linejoin:round;stroke-miterlimit:10;stroke-dasharray:none;stroke-opacity:1"
             id="path3809"
             inkscape:connector-curvature="0" /></g><g
           id="g3811"
           transform="rotate(-90,35488,9680.5)"><path
             d="m -708.5,0 c 0,-391.29376 317.20624,-708.5 708.5,-708.5 391.29376,0 708.5,317.20624 708.5,708.5 C 708.5,391.29376 391.29376,708.5 0,708.5 -391.29376,708.5 -708.5,391.29376 -708.5,0"
             style="fill:none;stroke:#000000;stroke-width:12;stroke-linecap:round;stroke-linejoin:round;stroke-miterlimit:10;stroke-dasharray:none;stroke-opacity:1"
             id="path3813"
             inkscape:connector-curvature="0" /></g><g
           id="g3815"
           transform="rotate(-90,39046,14082.5)"><path
             d="M 590.43732,8.60494 C 585.73383,331.33929 322.76862,590.5 0,590.5 -322.76862,590.5 -585.73383,331.33929 -590.43732,8.60494"
             style="fill:none;stroke:#000000;stroke-width:12;stroke-linecap:round;stroke-linejoin:round;stroke-miterlimit:10;stroke-dasharray:none;stroke-opacity:1"
             id="path3817"
             inkscape:connector-curvature="0" /></g><g
           id="g3819"
           transform="rotate(-90,37330.5,13011)"><path
             d="m -708.5,0 c 0,-391.29376 317.20624,-708.5 708.5,-708.5 391.29376,0 708.5,317.20624 708.5,708.5 C 708.5,391.29376 391.29376,708.5 0,708.5 -391.29376,708.5 -708.5,391.29376 -708.5,0"
             style="fill:none;stroke:#000000;stroke-width:12;stroke-linecap:round;stroke-linejoin:round;stroke-miterlimit:10;stroke-dasharray:none;stroke-opacity:1"
             id="path3821"
             inkscape:connector-curvature="0" /></g><g
           id="g3823"
           transform="rotate(-90,35479,9689.5)"><path
             d="M 708.44751,8.62646 C 703.72418,396.52676 387.92905,708.5 0,708.5 -387.92905,708.5 -703.72418,396.52676 -708.44751,8.62646"
             style="fill:none;stroke:#000000;stroke-width:12;stroke-linecap:round;stroke-linejoin:round;stroke-miterlimit:10;stroke-dasharray:none;stroke-opacity:1"
             id="path3825"
             inkscape:connector-curvature="0" /></g><g
           id="g3827"
           transform="rotate(-90,30775,3975.5)"><path
             d="m -708.5,0 c 0,-391.29376 317.20624,-708.5 708.5,-708.5 391.29376,0 708.5,317.20624 708.5,708.5 C 708.5,391.29376 391.29376,708.5 0,708.5 -391.29376,708.5 -708.5,391.29376 -708.5,0"
             style="fill:none;stroke:#000000;stroke-width:12;stroke-linecap:round;stroke-linejoin:round;stroke-miterlimit:10;stroke-dasharray:none;stroke-opacity:1"
             id="path3829"
             inkscape:connector-curvature="0" /></g><g
           id="g3831"
           transform="rotate(-90,37322,13019.5)"><path
             d="M 708.44751,8.62646 C 703.72418,396.52676 387.92905,708.5 0,708.5 -387.92905,708.5 -703.72418,396.52676 -708.44751,8.62646"
             style="fill:none;stroke:#000000;stroke-width:12;stroke-linecap:round;stroke-linejoin:round;stroke-miterlimit:10;stroke-dasharray:none;stroke-opacity:1"
             id="path3833"
             inkscape:connector-curvature="0" /></g><g
           id="g3835"
           transform="rotate(-90,28637.5,2830)"><path
             d="m -708.5,0 c 0,-391.29376 317.20624,-708.5 708.5,-708.5 391.29376,0 708.5,317.20624 708.5,708.5 C 708.5,391.29376 391.29376,708.5 0,708.5 -391.29376,708.5 -708.5,391.29376 -708.5,0"
             style="fill:none;stroke:#000000;stroke-width:12;stroke-linecap:round;stroke-linejoin:round;stroke-miterlimit:10;stroke-dasharray:none;stroke-opacity:1"
             id="path3837"
             inkscape:connector-curvature="0" /></g><g
           id="g3839"
           transform="rotate(-90,30766,3984.5)"><path
             d="M 708.44751,8.62646 C 703.72418,396.52676 387.92905,708.5 0,708.5 -387.92905,708.5 -703.72418,396.52676 -708.44751,8.62646"
             style="fill:none;stroke:#000000;stroke-width:12;stroke-linecap:round;stroke-linejoin:round;stroke-miterlimit:10;stroke-dasharray:none;stroke-opacity:1"
             id="path3841"
             inkscape:connector-curvature="0" /></g><g
           id="g3843"
           transform="rotate(-90,23180.5,-1800)"><path
             d="m -708.5,0 c 0,-391.29376 317.20624,-708.5 708.5,-708.5 391.29376,0 708.5,317.20624 708.5,708.5 C 708.5,391.29376 391.29376,708.5 0,708.5 -391.29376,708.5 -708.5,391.29376 -708.5,0"
             style="fill:none;stroke:#000000;stroke-width:12;stroke-linecap:round;stroke-linejoin:round;stroke-miterlimit:10;stroke-dasharray:none;stroke-opacity:1"
             id="path3845"
             inkscape:connector-curvature="0" /></g><g
           id="g3847"
           transform="rotate(-90,28628.5,2839)"><path
             d="M 708.44751,8.62646 C 703.72418,396.52676 387.92905,708.5 0,708.5 -387.92905,708.5 -703.72418,396.52676 -708.44751,8.62646"
             style="fill:none;stroke:#000000;stroke-width:12;stroke-linecap:round;stroke-linejoin:round;stroke-miterlimit:10;stroke-dasharray:none;stroke-opacity:1"
             id="path3849"
             inkscape:connector-curvature="0" /></g><g
           id="g3851"
           transform="rotate(-90,22188.5,-2509)"><path
             d="m -708.5,0 c 0,-391.29376 317.20624,-708.5 708.5,-708.5 391.29376,0 708.5,317.20624 708.5,708.5 C 708.5,391.29376 391.29376,708.5 0,708.5 -391.29376,708.5 -708.5,391.29376 -708.5,0"
             style="fill:none;stroke:#000000;stroke-width:12;stroke-linecap:round;stroke-linejoin:round;stroke-miterlimit:10;stroke-dasharray:none;stroke-opacity:1"
             id="path3853"
             inkscape:connector-curvature="0" /></g><g
           id="g3855"
           transform="rotate(-90,23172,-1791.5)"><path
             d="M 708.44751,8.62646 C 703.72418,396.52676 387.92905,708.5 0,708.5 -387.92905,708.5 -703.72418,396.52676 -708.44751,8.62646"
             style="fill:none;stroke:#000000;stroke-width:12;stroke-linecap:round;stroke-linejoin:round;stroke-miterlimit:10;stroke-dasharray:none;stroke-opacity:1"
             id="path3857"
             inkscape:connector-curvature="0" /></g><g
           id="g3859"
           transform="rotate(-90,16779,-7540.5)"><path
             d="m -708.5,0 c 0,-391.29376 317.20624,-708.5 708.5,-708.5 391.29376,0 708.5,317.20624 708.5,708.5 C 708.5,391.29376 391.29376,708.5 0,708.5 -391.29376,708.5 -708.5,391.29376 -708.5,0"
             style="fill:none;stroke:#000000;stroke-width:12;stroke-linecap:round;stroke-linejoin:round;stroke-miterlimit:10;stroke-dasharray:none;stroke-opacity:1"
             id="path3861"
             inkscape:connector-curvature="0" /></g><g
           id="g3863"
           transform="rotate(-90,22179.5,-2500)"><path
             d="M 708.44751,8.62646 C 703.72418,396.52676 387.92905,708.5 0,708.5 -387.92905,708.5 -703.72418,396.52676 -708.44751,8.62646"
             style="fill:none;stroke:#000000;stroke-width:12;stroke-linecap:round;stroke-linejoin:round;stroke-miterlimit:10;stroke-dasharray:none;stroke-opacity:1"
             id="path3865"
             inkscape:connector-curvature="0" /></g><g
           id="g3867"
           transform="rotate(-90,16093.5,-10422)"><path
             d="m -708.5,0 c 0,-391.29376 317.20624,-708.5 708.5,-708.5 391.29376,0 708.5,317.20624 708.5,708.5 C 708.5,391.29376 391.29376,708.5 0,708.5 -391.29376,708.5 -708.5,391.29376 -708.5,0"
             style="fill:none;stroke:#000000;stroke-width:12;stroke-linecap:round;stroke-linejoin:round;stroke-miterlimit:10;stroke-dasharray:none;stroke-opacity:1"
             id="path3869"
             inkscape:connector-curvature="0" /></g><g
           id="g3871"
           transform="rotate(-90,16770.5,-7532)"><path
             d="M 708.44751,8.62646 C 703.72418,396.52676 387.92905,708.5 0,708.5 -387.92905,708.5 -703.72418,396.52676 -708.44751,8.62646"
             style="fill:none;stroke:#000000;stroke-width:12;stroke-linecap:round;stroke-linejoin:round;stroke-miterlimit:10;stroke-dasharray:none;stroke-opacity:1"
             id="path3873"
             inkscape:connector-curvature="0" /></g><g
           id="g3875"
           transform="rotate(-90,14936.5,-10871)"><path
             d="m -708.5,0 c 0,-391.29376 317.20624,-708.5 708.5,-708.5 391.29376,0 708.5,317.20624 708.5,708.5 C 708.5,391.29376 391.29376,708.5 0,708.5 -391.29376,708.5 -708.5,391.29376 -708.5,0"
             style="fill:none;stroke:#000000;stroke-width:12;stroke-linecap:round;stroke-linejoin:round;stroke-miterlimit:10;stroke-dasharray:none;stroke-opacity:1"
             id="path3877"
             inkscape:connector-curvature="0" /></g><g
           id="g3879"
           transform="rotate(-90,16085,-10413.5)"><path
             d="M 708.44751,8.62646 C 703.72418,396.52676 387.92905,708.5 0,708.5 -387.92905,708.5 -703.72418,396.52676 -708.44751,8.62646"
             style="fill:none;stroke:#000000;stroke-width:12;stroke-linecap:round;stroke-linejoin:round;stroke-miterlimit:10;stroke-dasharray:none;stroke-opacity:1"
             id="path3881"
             inkscape:connector-curvature="0" /></g><g
           id="g3883"
           transform="rotate(-90,17074,-9725.5)"><path
             d="m -708.5,0 c 0,-391.29376 317.20624,-708.5 708.5,-708.5 391.29376,0 708.5,317.20624 708.5,708.5 C 708.5,391.29376 391.29376,708.5 0,708.5 -391.29376,708.5 -708.5,391.29376 -708.5,0"
             style="fill:none;stroke:#000000;stroke-width:12;stroke-linecap:round;stroke-linejoin:round;stroke-miterlimit:10;stroke-dasharray:none;stroke-opacity:1"
             id="path3885"
             inkscape:connector-curvature="0" /></g><g
           id="g3887"
           transform="rotate(-90,14927.5,-10862)"><path
             d="M 708.44751,8.62646 C 703.72418,396.52676 387.92905,708.5 0,708.5 -387.92905,708.5 -703.72418,396.52676 -708.44751,8.62646"
             style="fill:none;stroke:#000000;stroke-width:12;stroke-linecap:round;stroke-linejoin:round;stroke-miterlimit:10;stroke-dasharray:none;stroke-opacity:1"
             id="path3889"
             inkscape:connector-curvature="0" /></g><g
           id="g3891"
           transform="rotate(-90,21787,-4020.5)"><path
             d="m -708.5,0 c 0,-391.29376 317.20624,-708.5 708.5,-708.5 391.29376,0 708.5,317.20624 708.5,708.5 C 708.5,391.29376 391.29376,708.5 0,708.5 -391.29376,708.5 -708.5,391.29376 -708.5,0"
             style="fill:none;stroke:#000000;stroke-width:12;stroke-linecap:round;stroke-linejoin:round;stroke-miterlimit:10;stroke-dasharray:none;stroke-opacity:1"
             id="path3893"
             inkscape:connector-curvature="0" /></g><g
           id="g3895"
           transform="rotate(-90,17065,-9716.5)"><path
             d="M 708.44751,8.62646 C 703.72418,396.52676 387.92905,708.5 0,708.5 -387.92905,708.5 -703.72418,396.52676 -708.44751,8.62646"
             style="fill:none;stroke:#000000;stroke-width:12;stroke-linecap:round;stroke-linejoin:round;stroke-miterlimit:10;stroke-dasharray:none;stroke-opacity:1"
             id="path3897"
             inkscape:connector-curvature="0" /></g><g
           id="g3899"
           transform="rotate(-90,23924.5,-2875)"><path
             d="m -708.5,0 c 0,-391.29376 317.20624,-708.5 708.5,-708.5 391.29376,0 708.5,317.20624 708.5,708.5 C 708.5,391.29376 391.29376,708.5 0,708.5 -391.29376,708.5 -708.5,391.29376 -708.5,0"
             style="fill:none;stroke:#000000;stroke-width:12;stroke-linecap:round;stroke-linejoin:round;stroke-miterlimit:10;stroke-dasharray:none;stroke-opacity:1"
             id="path3901"
             inkscape:connector-curvature="0" /></g><g
           id="g3903"
           transform="rotate(-90,21778,-4011.5)"><path
             d="M 708.44751,8.62646 C 703.72418,396.52676 387.92905,708.5 0,708.5 -387.92905,708.5 -703.72418,396.52676 -708.44751,8.62646"
             style="fill:none;stroke:#000000;stroke-width:12;stroke-linecap:round;stroke-linejoin:round;stroke-miterlimit:10;stroke-dasharray:none;stroke-opacity:1"
             id="path3905"
             inkscape:connector-curvature="0" /></g><g
           id="g3907"
           transform="rotate(-90,25353.5,373)"><path
             d="m -590.5,0 c 0,-326.12418 264.37582,-590.5 590.5,-590.5 326.12418,0 590.5,264.37582 590.5,590.5 C 590.5,326.12418 326.12418,590.5 0,590.5 -326.12418,590.5 -590.5,326.12418 -590.5,0"
             style="fill:none;stroke:#000000;stroke-width:12;stroke-linecap:round;stroke-linejoin:round;stroke-miterlimit:10;stroke-dasharray:none;stroke-opacity:1"
             id="path3909"
             inkscape:connector-curvature="0" /></g><g
           id="g3911"
           transform="rotate(-90,23915.5,-2866)"><path
             d="M 708.44751,8.62646 C 703.72418,396.52676 387.92905,708.5 0,708.5 -387.92905,708.5 -703.72418,396.52676 -708.44751,8.62646"
             style="fill:none;stroke:#000000;stroke-width:12;stroke-linecap:round;stroke-linejoin:round;stroke-miterlimit:10;stroke-dasharray:none;stroke-opacity:1"
             id="path3913"
             inkscape:connector-curvature="0" /></g><g
           id="g3915"
           transform="rotate(-90,29039,4341.5)"><path
             d="m -708.5,0 c 0,-391.29376 317.20624,-708.5 708.5,-708.5 391.29376,0 708.5,317.20624 708.5,708.5 C 708.5,391.29376 391.29376,708.5 0,708.5 -391.29376,708.5 -708.5,391.29376 -708.5,0"
             style="fill:none;stroke:#000000;stroke-width:12;stroke-linecap:round;stroke-linejoin:round;stroke-miterlimit:10;stroke-dasharray:none;stroke-opacity:1"
             id="path3917"
             inkscape:connector-curvature="0" /></g><g
           id="g3919"
           transform="rotate(-90,25345,381.5)"><path
             d="M 590.43732,8.60494 C 585.73383,331.33929 322.76862,590.5 0,590.5 -322.76862,590.5 -585.73383,331.33929 -590.43732,8.60494"
             style="fill:none;stroke:#000000;stroke-width:12;stroke-linecap:round;stroke-linejoin:round;stroke-miterlimit:10;stroke-dasharray:none;stroke-opacity:1"
             id="path3921"
             inkscape:connector-curvature="0" /></g><g
           id="g3923"
           transform="rotate(-90,30480,6160.5)"><path
             d="m -708.5,0 c 0,-391.29376 317.20624,-708.5 708.5,-708.5 391.29376,0 708.5,317.20624 708.5,708.5 C 708.5,391.29376 391.29376,708.5 0,708.5 -391.29376,708.5 -708.5,391.29376 -708.5,0"
             style="fill:none;stroke:#000000;stroke-width:12;stroke-linecap:round;stroke-linejoin:round;stroke-miterlimit:10;stroke-dasharray:none;stroke-opacity:1"
             id="path3925"
             inkscape:connector-curvature="0" /></g><g
           id="g3927"
           transform="rotate(-90,29030,4350.5)"><path
             d="M 708.44751,8.62646 C 703.72418,396.52676 387.92905,708.5 0,708.5 -387.92905,708.5 -703.72418,396.52676 -708.44751,8.62646"
             style="fill:none;stroke:#000000;stroke-width:12;stroke-linecap:round;stroke-linejoin:round;stroke-miterlimit:10;stroke-dasharray:none;stroke-opacity:1"
             id="path3929"
             inkscape:connector-curvature="0" /></g><g
           id="g3931"
           transform="rotate(-90,35889.5,11192)"><path
             d="m -708.5,0 c 0,-391.29376 317.20624,-708.5 708.5,-708.5 391.29376,0 708.5,317.20624 708.5,708.5 C 708.5,391.29376 391.29376,708.5 0,708.5 -391.29376,708.5 -708.5,391.29376 -708.5,0"
             style="fill:none;stroke:#000000;stroke-width:12;stroke-linecap:round;stroke-linejoin:round;stroke-miterlimit:10;stroke-dasharray:none;stroke-opacity:1"
             id="path3933"
             inkscape:connector-curvature="0" /></g><g
           id="g3935"
           transform="rotate(-90,30471.5,6169)"><path
             d="M 708.44751,8.62646 C 703.72418,396.52676 387.92905,708.5 0,708.5 -387.92905,708.5 -703.72418,396.52676 -708.44751,8.62646"
             style="fill:none;stroke:#000000;stroke-width:12;stroke-linecap:round;stroke-linejoin:round;stroke-miterlimit:10;stroke-dasharray:none;stroke-opacity:1"
             id="path3937"
             inkscape:connector-curvature="0" /></g><g
           id="g3939"
           transform="rotate(-90,37625.5,10826)"><path
             d="m -708.5,0 c 0,-391.29376 317.20624,-708.5 708.5,-708.5 391.29376,0 708.5,317.20624 708.5,708.5 C 708.5,391.29376 391.29376,708.5 0,708.5 -391.29376,708.5 -708.5,391.29376 -708.5,0"
             style="fill:none;stroke:#000000;stroke-width:12;stroke-linecap:round;stroke-linejoin:round;stroke-miterlimit:10;stroke-dasharray:none;stroke-opacity:1"
             id="path3941"
             inkscape:connector-curvature="0" /></g><g
           id="g3943"
           transform="rotate(-90,35880.5,11201)"><path
             d="M 708.44751,8.62646 C 703.72418,396.52676 387.92905,708.5 0,708.5 -387.92905,708.5 -703.72418,396.52676 -708.44751,8.62646"
             style="fill:none;stroke:#000000;stroke-width:12;stroke-linecap:round;stroke-linejoin:round;stroke-miterlimit:10;stroke-dasharray:none;stroke-opacity:1"
             id="path3945"
             inkscape:connector-curvature="0" /></g><g
           id="g3947"
           transform="rotate(-90,38074,11936.5)"><path
             d="m -708.5,0 c 0,-391.29376 317.20624,-708.5 708.5,-708.5 391.29376,0 708.5,317.20624 708.5,708.5 C 708.5,391.29376 391.29376,708.5 0,708.5 -391.29376,708.5 -708.5,391.29376 -708.5,0"
             style="fill:none;stroke:#000000;stroke-width:12;stroke-linecap:round;stroke-linejoin:round;stroke-miterlimit:10;stroke-dasharray:none;stroke-opacity:1"
             id="path3949"
             inkscape:connector-curvature="0" /></g><g
           id="g3951"
           transform="rotate(-90,37616.5,10835)"><path
             d="M 708.44751,8.62646 C 703.72418,396.52676 387.92905,708.5 0,708.5 -387.92905,708.5 -703.72418,396.52676 -708.44751,8.62646"
             style="fill:none;stroke:#000000;stroke-width:12;stroke-linecap:round;stroke-linejoin:round;stroke-miterlimit:10;stroke-dasharray:none;stroke-opacity:1"
             id="path3953"
             inkscape:connector-curvature="0" /></g><g
           id="g3955"
           transform="rotate(-90,34732,10743.5)"><path
             d="m -708.5,0 c 0,-391.29376 317.20624,-708.5 708.5,-708.5 391.29376,0 708.5,317.20624 708.5,708.5 C 708.5,391.29376 391.29376,708.5 0,708.5 -391.29376,708.5 -708.5,391.29376 -708.5,0"
             style="fill:none;stroke:#000000;stroke-width:12;stroke-linecap:round;stroke-linejoin:round;stroke-miterlimit:10;stroke-dasharray:none;stroke-opacity:1"
             id="path3957"
             inkscape:connector-curvature="0" /></g><g
           id="g3959"
           transform="rotate(-90,38065.5,11945)"><path
             d="M 708.44751,8.62646 C 703.72418,396.52676 387.92905,708.5 0,708.5 -387.92905,708.5 -703.72418,396.52676 -708.44751,8.62646"
             style="fill:none;stroke:#000000;stroke-width:12;stroke-linecap:round;stroke-linejoin:round;stroke-miterlimit:10;stroke-dasharray:none;stroke-opacity:1"
             id="path3961"
             inkscape:connector-curvature="0" /></g><g
           id="g3963"
           transform="rotate(-90,32204,7223.5)"><path
             d="m -590.5,0 c 0,-326.12418 264.37582,-590.5 590.5,-590.5 326.12418,0 590.5,264.37582 590.5,590.5 C 590.5,326.12418 326.12418,590.5 0,590.5 -326.12418,590.5 -590.5,326.12418 -590.5,0"
             style="fill:none;stroke:#000000;stroke-width:12;stroke-linecap:round;stroke-linejoin:round;stroke-miterlimit:10;stroke-dasharray:none;stroke-opacity:1"
             id="path3965"
             inkscape:connector-curvature="0" /></g><g
           id="g3967"
           transform="rotate(-90,34723.5,10752)"><path
             d="M 708.44751,8.62646 C 703.72418,396.52676 387.92905,708.5 0,708.5 -387.92905,708.5 -703.72418,396.52676 -708.44751,8.62646"
             style="fill:none;stroke:#000000;stroke-width:12;stroke-linecap:round;stroke-linejoin:round;stroke-miterlimit:10;stroke-dasharray:none;stroke-opacity:1"
             id="path3969"
             inkscape:connector-curvature="0" /></g><g
           id="g3971"
           transform="rotate(-90,30031,5050.5)"><path
             d="m -708.5,0 c 0,-391.29376 317.20624,-708.5 708.5,-708.5 391.29376,0 708.5,317.20624 708.5,708.5 C 708.5,391.29376 391.29376,708.5 0,708.5 -391.29376,708.5 -708.5,391.29376 -708.5,0"
             style="fill:none;stroke:#000000;stroke-width:12;stroke-linecap:round;stroke-linejoin:round;stroke-miterlimit:10;stroke-dasharray:none;stroke-opacity:1"
             id="path3973"
             inkscape:connector-curvature="0" /></g><g
           id="g3975"
           transform="rotate(-90,32195.5,7232)"><path
             d="M 590.43732,8.60494 C 585.73383,331.33929 322.76862,590.5 0,590.5 -322.76862,590.5 -585.73383,331.33929 -590.43732,8.60494"
             style="fill:none;stroke:#000000;stroke-width:12;stroke-linecap:round;stroke-linejoin:round;stroke-miterlimit:10;stroke-dasharray:none;stroke-opacity:1"
             id="path3977"
             inkscape:connector-curvature="0" /></g><g
           id="g3979"
           transform="rotate(-90,27881.5,3893)"><path
             d="m -708.5,0 c 0,-391.29376 317.20624,-708.5 708.5,-708.5 391.29376,0 708.5,317.20624 708.5,708.5 C 708.5,391.29376 391.29376,708.5 0,708.5 -391.29376,708.5 -708.5,391.29376 -708.5,0"
             style="fill:none;stroke:#000000;stroke-width:12;stroke-linecap:round;stroke-linejoin:round;stroke-miterlimit:10;stroke-dasharray:none;stroke-opacity:1"
             id="path3981"
             inkscape:connector-curvature="0" /></g><g
           id="g3983"
           transform="rotate(-90,30022.5,5059)"><path
             d="M 708.44751,8.62646 C 703.72418,396.52676 387.92905,708.5 0,708.5 -387.92905,708.5 -703.72418,396.52676 -708.44751,8.62646"
             style="fill:none;stroke:#000000;stroke-width:12;stroke-linecap:round;stroke-linejoin:round;stroke-miterlimit:10;stroke-dasharray:none;stroke-opacity:1"
             id="path3985"
             inkscape:connector-curvature="0" /></g><g
           id="g3987"
           transform="rotate(-90,24373,-1764.5)"><path
             d="m -708.5,0 c 0,-391.29376 317.20624,-708.5 708.5,-708.5 391.29376,0 708.5,317.20624 708.5,708.5 C 708.5,391.29376 391.29376,708.5 0,708.5 -391.29376,708.5 -708.5,391.29376 -708.5,0"
             style="fill:none;stroke:#000000;stroke-width:12;stroke-linecap:round;stroke-linejoin:round;stroke-miterlimit:10;stroke-dasharray:none;stroke-opacity:1"
             id="path3989"
             inkscape:connector-curvature="0" /></g><g
           id="g3991"
           transform="rotate(-90,27873,3901.5)"><path
             d="M 708.44751,8.62646 C 703.72418,396.52676 387.92905,708.5 0,708.5 -387.92905,708.5 -703.72418,396.52676 -708.44751,8.62646"
             style="fill:none;stroke:#000000;stroke-width:12;stroke-linecap:round;stroke-linejoin:round;stroke-miterlimit:10;stroke-dasharray:none;stroke-opacity:1"
             id="path3993"
             inkscape:connector-curvature="0" /></g><g
           id="g3995"
           transform="rotate(-90,21031,-2957.5)"><path
             d="m -708.5,0 c 0,-391.29376 317.20624,-708.5 708.5,-708.5 391.29376,0 708.5,317.20624 708.5,708.5 C 708.5,391.29376 391.29376,708.5 0,708.5 -391.29376,708.5 -708.5,391.29376 -708.5,0"
             style="fill:none;stroke:#000000;stroke-width:12;stroke-linecap:round;stroke-linejoin:round;stroke-miterlimit:10;stroke-dasharray:none;stroke-opacity:1"
             id="path3997"
             inkscape:connector-curvature="0" /></g><g
           id="g3999"
           transform="rotate(-90,24364.5,-1756)"><path
             d="M 708.44751,8.62646 C 703.72418,396.52676 387.92905,708.5 0,708.5 -387.92905,708.5 -703.72418,396.52676 -708.44751,8.62646"
             style="fill:none;stroke:#000000;stroke-width:12;stroke-linecap:round;stroke-linejoin:round;stroke-miterlimit:10;stroke-dasharray:none;stroke-opacity:1"
             id="path4001"
             inkscape:connector-curvature="0" /></g><g
           id="g4003"
           transform="rotate(-90,17522.5,-8615)"><path
             d="m -708.5,0 c 0,-391.29376 317.20624,-708.5 708.5,-708.5 391.29376,0 708.5,317.20624 708.5,708.5 C 708.5,391.29376 391.29376,708.5 0,708.5 -391.29376,708.5 -708.5,391.29376 -708.5,0"
             style="fill:none;stroke:#000000;stroke-width:12;stroke-linecap:round;stroke-linejoin:round;stroke-miterlimit:10;stroke-dasharray:none;stroke-opacity:1"
             id="path4005"
             inkscape:connector-curvature="0" /></g><g
           id="g4007"
           transform="rotate(-90,21022.5,-2949)"><path
             d="M 708.44751,8.62646 C 703.72418,396.52676 387.92905,708.5 0,708.5 -387.92905,708.5 -703.72418,396.52676 -708.44751,8.62646"
             style="fill:none;stroke:#000000;stroke-width:12;stroke-linecap:round;stroke-linejoin:round;stroke-miterlimit:10;stroke-dasharray:none;stroke-opacity:1"
             id="path4009"
             inkscape:connector-curvature="0" /></g><g
           id="g4011"
           transform="rotate(-90,15338,-9359.5)"><path
             d="m -708.5,0 c 0,-391.29376 317.20624,-708.5 708.5,-708.5 391.29376,0 708.5,317.20624 708.5,708.5 C 708.5,391.29376 391.29376,708.5 0,708.5 -391.29376,708.5 -708.5,391.29376 -708.5,0"
             style="fill:none;stroke:#000000;stroke-width:12;stroke-linecap:round;stroke-linejoin:round;stroke-miterlimit:10;stroke-dasharray:none;stroke-opacity:1"
             id="path4013"
             inkscape:connector-curvature="0" /></g><g
           id="g4015"
           transform="rotate(-90,17514,-8606.5)"><path
             d="M 708.44751,8.62646 C 703.72418,396.52676 387.92905,708.5 0,708.5 -387.92905,708.5 -703.72418,396.52676 -708.44751,8.62646"
             style="fill:none;stroke:#000000;stroke-width:12;stroke-linecap:round;stroke-linejoin:round;stroke-miterlimit:10;stroke-dasharray:none;stroke-opacity:1"
             id="path4017"
             inkscape:connector-curvature="0" /></g><g
           id="g4019"
           transform="rotate(-90,15329,-9350.5)"><path
             d="M 708.44751,8.62646 C 703.72418,396.52676 387.92905,708.5 0,708.5 -387.92905,708.5 -703.72418,396.52676 -708.44751,8.62646"
             style="fill:none;stroke:#000000;stroke-width:12;stroke-linecap:round;stroke-linejoin:round;stroke-miterlimit:10;stroke-dasharray:none;stroke-opacity:1"
             id="path4021"
             inkscape:connector-curvature="0" /></g><path
           d="M 19052,55656 H 31286 V 852 H 19052"
           style="fill:none;stroke:#000000;stroke-width:12;stroke-linecap:round;stroke-linejoin:round;stroke-miterlimit:10;stroke-dasharray:none;stroke-opacity:1"
           id="path4023"
           inkscape:connector-curvature="0" /><path
           d="M 18279,55656 V 852"
           style="fill:none;stroke:#000000;stroke-width:12;stroke-linecap:round;stroke-linejoin:round;stroke-miterlimit:10;stroke-dasharray:none;stroke-opacity:1"
           id="path4025"
           inkscape:connector-curvature="0" /></g></g><g
       transform="translate(-1625.8644,-170.6681)"
       id="g4027"><g
         id="g4029"
         clip-path="url(#clipPath4033-3)"><path
           d="m 18280,55656 h 9"
           style="fill:none;stroke:#000000;stroke-width:12;stroke-linecap:round;stroke-linejoin:round;stroke-miterlimit:10;stroke-dasharray:none;stroke-opacity:1"
           id="path4035"
           inkscape:connector-curvature="0" /><path
           d="m 18289,852 h -9"
           style="fill:none;stroke:#000000;stroke-width:12;stroke-linecap:round;stroke-linejoin:round;stroke-miterlimit:10;stroke-dasharray:none;stroke-opacity:1"
           id="path4037"
           inkscape:connector-curvature="0" /><path
           d="m 12138,852 v 54804 h 6142 V 852 h -6142"
           style="fill:none;stroke:#000000;stroke-width:12;stroke-linecap:round;stroke-linejoin:round;stroke-miterlimit:10;stroke-dasharray:none;stroke-opacity:1"
           id="path4039"
           inkscape:connector-curvature="0" /><path
           d="M 18289,55656 V 852"
           style="fill:none;stroke:#000000;stroke-width:12;stroke-linecap:round;stroke-linejoin:round;stroke-miterlimit:10;stroke-dasharray:none;stroke-opacity:1"
           id="path4041"
           inkscape:connector-curvature="0" /></g></g></g></svg>