<?xml version="1.0" encoding="UTF-8" standalone="no"?>
<svg
   xmlns:dc="http://purl.org/dc/elements/1.1/"
   xmlns:cc="http://creativecommons.org/ns#"
   xmlns:rdf="http://www.w3.org/1999/02/22-rdf-syntax-ns#"
   xmlns:svg="http://www.w3.org/2000/svg"
   xmlns="http://www.w3.org/2000/svg"
   viewBox="0 0 4493.3335 3178.6667"
   height="3178.6667"
   width="4493.3335"
   xml:space="preserve"
   id="svg10"
   version="1.1"><metadata
     id="metadata16"><rdf:RDF><cc:Work
         rdf:about=""><dc:format>image/svg+xml</dc:format><dc:type
           rdf:resource="http://purl.org/dc/dcmitype/StillImage" /><dc:title></dc:title></cc:Work></rdf:RDF></metadata><defs
     id="defs14"><clipPath
       id="clipPath26"
       clipPathUnits="userSpaceOnUse"><path
         id="path24"
         d="M 18127,700 H 31438 V 55808 H 18127 V 700" /></clipPath><clipPath
       id="clipPath328"
       clipPathUnits="userSpaceOnUse"><path
         id="path326"
         d="m 11986,700 h 6455 V 55808 H 11986 V 700" /></clipPath><clipPath
       id="clipPath344"
       clipPathUnits="userSpaceOnUse"><path
         id="path342"
         d="M 0,0 H 39732 V 56173 H 0 V 0" /></clipPath><clipPath
       id="clipPath442"
       clipPathUnits="userSpaceOnUse"><path
         id="path440"
         d="M 0,0 H 39732 V 56173 H 0 V 0" /></clipPath><clipPath
       id="clipPath454"
       clipPathUnits="userSpaceOnUse"><path
         id="path452"
         d="M 0,0 H 39732 V 56173 H 0 V 0" /></clipPath><clipPath
       id="clipPath328-5"
       clipPathUnits="userSpaceOnUse"><path
         id="path326-3"
         d="m 11986,700 h 6455 V 55808 H 11986 V 700" /></clipPath><clipPath
       id="clipPath26-4"
       clipPathUnits="userSpaceOnUse"><path
         id="path24-4"
         d="M 18127,700 H 31438 V 55808 H 18127 V 700" /></clipPath></defs><g
     transform="matrix(0,-0.08,-0.08,0,4493.3333,3178.6667)"
     id="g18"><g
       id="g20"
       transform="translate(-2595.9635,-210.92774)"><g
         clip-path="url(#clipPath26-4)"
         id="g22"><g
           transform="rotate(-90,15199,-9669.5)"
           id="g28"><path
             id="path30"
             style="fill:none;stroke:#000000;stroke-width:12;stroke-linecap:round;stroke-linejoin:round;stroke-miterlimit:10;stroke-dasharray:none;stroke-opacity:1"
             d="M 708.44751,8.62646 C 703.72418,396.52676 387.92905,708.5 0,708.5 -387.92905,708.5 -703.72418,396.52676 -708.44751,8.62646" /></g><g
           transform="rotate(-90,15208,-9678.5)"
           id="g32"><path
             id="path34"
             style="fill:none;stroke:#000000;stroke-width:12;stroke-linecap:round;stroke-linejoin:round;stroke-miterlimit:10;stroke-dasharray:none;stroke-opacity:1"
             d="m -708.5,0 c 0,-391.29376 317.20624,-708.5 708.5,-708.5 391.29376,0 708.5,317.20624 708.5,708.5 C 708.5,391.29376 391.29376,708.5 0,708.5 -391.29376,708.5 -708.5,391.29376 -708.5,0" /></g><g
           transform="rotate(-90,17384,-8925.5)"
           id="g36"><path
             id="path38"
             style="fill:none;stroke:#000000;stroke-width:12;stroke-linecap:round;stroke-linejoin:round;stroke-miterlimit:10;stroke-dasharray:none;stroke-opacity:1"
             d="M 708.44751,8.62646 C 703.72418,396.52676 387.92905,708.5 0,708.5 -387.92905,708.5 -703.72418,396.52676 -708.44751,8.62646" /></g><g
           transform="rotate(-90,17392.5,-8934)"
           id="g40"><path
             id="path42"
             style="fill:none;stroke:#000000;stroke-width:12;stroke-linecap:round;stroke-linejoin:round;stroke-miterlimit:10;stroke-dasharray:none;stroke-opacity:1"
             d="m -708.5,0 c 0,-391.29376 317.20624,-708.5 708.5,-708.5 391.29376,0 708.5,317.20624 708.5,708.5 C 708.5,391.29376 391.29376,708.5 0,708.5 -391.29376,708.5 -708.5,391.29376 -708.5,0" /></g><g
           transform="rotate(-90,20892.5,-3268)"
           id="g44"><path
             id="path46"
             style="fill:none;stroke:#000000;stroke-width:12;stroke-linecap:round;stroke-linejoin:round;stroke-miterlimit:10;stroke-dasharray:none;stroke-opacity:1"
             d="M 708.44751,8.62646 C 703.72418,396.52676 387.92905,708.5 0,708.5 -387.92905,708.5 -703.72418,396.52676 -708.44751,8.62646" /></g><g
           transform="rotate(-90,20901,-3276.5)"
           id="g48"><path
             id="path50"
             style="fill:none;stroke:#000000;stroke-width:12;stroke-linecap:round;stroke-linejoin:round;stroke-miterlimit:10;stroke-dasharray:none;stroke-opacity:1"
             d="m -708.5,0 c 0,-391.29376 317.20624,-708.5 708.5,-708.5 391.29376,0 708.5,317.20624 708.5,708.5 C 708.5,391.29376 391.29376,708.5 0,708.5 -391.29376,708.5 -708.5,391.29376 -708.5,0" /></g><g
           transform="rotate(-90,24234.5,-2075)"
           id="g52"><path
             id="path54"
             style="fill:none;stroke:#000000;stroke-width:12;stroke-linecap:round;stroke-linejoin:round;stroke-miterlimit:10;stroke-dasharray:none;stroke-opacity:1"
             d="M 708.44751,8.62646 C 703.72418,396.52676 387.92905,708.5 0,708.5 -387.92905,708.5 -703.72418,396.52676 -708.44751,8.62646" /></g><g
           transform="rotate(-90,24243,-2083.5)"
           id="g56"><path
             id="path58"
             style="fill:none;stroke:#000000;stroke-width:12;stroke-linecap:round;stroke-linejoin:round;stroke-miterlimit:10;stroke-dasharray:none;stroke-opacity:1"
             d="m -708.5,0 c 0,-391.29376 317.20624,-708.5 708.5,-708.5 391.29376,0 708.5,317.20624 708.5,708.5 C 708.5,391.29376 391.29376,708.5 0,708.5 -391.29376,708.5 -708.5,391.29376 -708.5,0" /></g><g
           transform="rotate(-90,27743,3582.5)"
           id="g60"><path
             id="path62"
             style="fill:none;stroke:#000000;stroke-width:12;stroke-linecap:round;stroke-linejoin:round;stroke-miterlimit:10;stroke-dasharray:none;stroke-opacity:1"
             d="M 708.44751,8.62646 C 703.72418,396.52676 387.92905,708.5 0,708.5 -387.92905,708.5 -703.72418,396.52676 -708.44751,8.62646" /></g><g
           transform="rotate(-90,27751.5,3574)"
           id="g64"><path
             id="path66"
             style="fill:none;stroke:#000000;stroke-width:12;stroke-linecap:round;stroke-linejoin:round;stroke-miterlimit:10;stroke-dasharray:none;stroke-opacity:1"
             d="m -708.5,0 c 0,-391.29376 317.20624,-708.5 708.5,-708.5 391.29376,0 708.5,317.20624 708.5,708.5 C 708.5,391.29376 391.29376,708.5 0,708.5 -391.29376,708.5 -708.5,391.29376 -708.5,0" /></g><g
           transform="rotate(-90,29892.5,4740)"
           id="g68"><path
             id="path70"
             style="fill:none;stroke:#000000;stroke-width:12;stroke-linecap:round;stroke-linejoin:round;stroke-miterlimit:10;stroke-dasharray:none;stroke-opacity:1"
             d="M 708.44751,8.62646 C 703.72418,396.52676 387.92905,708.5 0,708.5 -387.92905,708.5 -703.72418,396.52676 -708.44751,8.62646" /></g><g
           transform="rotate(-90,29901,4731.5)"
           id="g72"><path
             id="path74"
             style="fill:none;stroke:#000000;stroke-width:12;stroke-linecap:round;stroke-linejoin:round;stroke-miterlimit:10;stroke-dasharray:none;stroke-opacity:1"
             d="m -708.5,0 c 0,-391.29376 317.20624,-708.5 708.5,-708.5 391.29376,0 708.5,317.20624 708.5,708.5 C 708.5,391.29376 391.29376,708.5 0,708.5 -391.29376,708.5 -708.5,391.29376 -708.5,0" /></g><g
           transform="rotate(-90,32066,6913.5)"
           id="g76"><path
             id="path78"
             style="fill:none;stroke:#000000;stroke-width:12;stroke-linecap:round;stroke-linejoin:round;stroke-miterlimit:10;stroke-dasharray:none;stroke-opacity:1"
             d="M 590.43732,8.60494 C 585.73383,331.33929 322.76862,590.5 0,590.5 -322.76862,590.5 -585.73383,331.33929 -590.43732,8.60494" /></g><g
           transform="rotate(-90,32074.5,6905)"
           id="g80"><path
             id="path82"
             style="fill:none;stroke:#000000;stroke-width:12;stroke-linecap:round;stroke-linejoin:round;stroke-miterlimit:10;stroke-dasharray:none;stroke-opacity:1"
             d="m -590.5,0 c 0,-326.12418 264.37582,-590.5 590.5,-590.5 326.12418,0 590.5,264.37582 590.5,590.5 C 590.5,326.12418 326.12418,590.5 0,590.5 -326.12418,590.5 -590.5,326.12418 -590.5,0" /></g><g
           transform="rotate(-90,34593.5,10433)"
           id="g84"><path
             id="path86"
             style="fill:none;stroke:#000000;stroke-width:12;stroke-linecap:round;stroke-linejoin:round;stroke-miterlimit:10;stroke-dasharray:none;stroke-opacity:1"
             d="M 708.44751,8.62646 C 703.72418,396.52676 387.92905,708.5 0,708.5 -387.92905,708.5 -703.72418,396.52676 -708.44751,8.62646" /></g><g
           transform="rotate(-90,34602,10424.5)"
           id="g88"><path
             id="path90"
             style="fill:none;stroke:#000000;stroke-width:12;stroke-linecap:round;stroke-linejoin:round;stroke-miterlimit:10;stroke-dasharray:none;stroke-opacity:1"
             d="m -708.5,0 c 0,-391.29376 317.20624,-708.5 708.5,-708.5 391.29376,0 708.5,317.20624 708.5,708.5 C 708.5,391.29376 391.29376,708.5 0,708.5 -391.29376,708.5 -708.5,391.29376 -708.5,0" /></g><g
           transform="rotate(-90,37935.5,11626)"
           id="g92"><path
             id="path94"
             style="fill:none;stroke:#000000;stroke-width:12;stroke-linecap:round;stroke-linejoin:round;stroke-miterlimit:10;stroke-dasharray:none;stroke-opacity:1"
             d="M 708.44751,8.62646 C 703.72418,396.52676 387.92905,708.5 0,708.5 -387.92905,708.5 -703.72418,396.52676 -708.44751,8.62646" /></g><g
           transform="rotate(-90,37944,11617.5)"
           id="g96"><path
             id="path98"
             style="fill:none;stroke:#000000;stroke-width:12;stroke-linecap:round;stroke-linejoin:round;stroke-miterlimit:10;stroke-dasharray:none;stroke-opacity:1"
             d="m -708.5,0 c 0,-391.29376 317.20624,-708.5 708.5,-708.5 391.29376,0 708.5,317.20624 708.5,708.5 C 708.5,391.29376 391.29376,708.5 0,708.5 -391.29376,708.5 -708.5,391.29376 -708.5,0" /></g><g
           transform="rotate(-90,37486.5,10516)"
           id="g100"><path
             id="path102"
             style="fill:none;stroke:#000000;stroke-width:12;stroke-linecap:round;stroke-linejoin:round;stroke-miterlimit:10;stroke-dasharray:none;stroke-opacity:1"
             d="M 708.44751,8.62646 C 703.72418,396.52676 387.92905,708.5 0,708.5 -387.92905,708.5 -703.72418,396.52676 -708.44751,8.62646" /></g><g
           transform="rotate(-90,37495.5,10507)"
           id="g104"><path
             id="path106"
             style="fill:none;stroke:#000000;stroke-width:12;stroke-linecap:round;stroke-linejoin:round;stroke-miterlimit:10;stroke-dasharray:none;stroke-opacity:1"
             d="m -708.5,0 c 0,-391.29376 317.20624,-708.5 708.5,-708.5 391.29376,0 708.5,317.20624 708.5,708.5 C 708.5,391.29376 391.29376,708.5 0,708.5 -391.29376,708.5 -708.5,391.29376 -708.5,0" /></g><g
           transform="rotate(-90,35750.5,10882)"
           id="g108"><path
             id="path110"
             style="fill:none;stroke:#000000;stroke-width:12;stroke-linecap:round;stroke-linejoin:round;stroke-miterlimit:10;stroke-dasharray:none;stroke-opacity:1"
             d="M 708.44751,8.62646 C 703.72418,396.52676 387.92905,708.5 0,708.5 -387.92905,708.5 -703.72418,396.52676 -708.44751,8.62646" /></g><g
           transform="rotate(-90,35759.5,10873)"
           id="g112"><path
             id="path114"
             style="fill:none;stroke:#000000;stroke-width:12;stroke-linecap:round;stroke-linejoin:round;stroke-miterlimit:10;stroke-dasharray:none;stroke-opacity:1"
             d="m -708.5,0 c 0,-391.29376 317.20624,-708.5 708.5,-708.5 391.29376,0 708.5,317.20624 708.5,708.5 C 708.5,391.29376 391.29376,708.5 0,708.5 -391.29376,708.5 -708.5,391.29376 -708.5,0" /></g><g
           transform="rotate(-90,30341,5850.5)"
           id="g116"><path
             id="path118"
             style="fill:none;stroke:#000000;stroke-width:12;stroke-linecap:round;stroke-linejoin:round;stroke-miterlimit:10;stroke-dasharray:none;stroke-opacity:1"
             d="M 708.44751,8.62646 C 703.72418,396.52676 387.92905,708.5 0,708.5 -387.92905,708.5 -703.72418,396.52676 -708.44751,8.62646" /></g><g
           transform="rotate(-90,30350,5841.5)"
           id="g120"><path
             id="path122"
             style="fill:none;stroke:#000000;stroke-width:12;stroke-linecap:round;stroke-linejoin:round;stroke-miterlimit:10;stroke-dasharray:none;stroke-opacity:1"
             d="m -708.5,0 c 0,-391.29376 317.20624,-708.5 708.5,-708.5 391.29376,0 708.5,317.20624 708.5,708.5 C 708.5,391.29376 391.29376,708.5 0,708.5 -391.29376,708.5 -708.5,391.29376 -708.5,0" /></g><g
           transform="rotate(-90,28900,4031.5)"
           id="g124"><path
             id="path126"
             style="fill:none;stroke:#000000;stroke-width:12;stroke-linecap:round;stroke-linejoin:round;stroke-miterlimit:10;stroke-dasharray:none;stroke-opacity:1"
             d="M 708.44751,8.62646 C 703.72418,396.52676 387.92905,708.5 0,708.5 -387.92905,708.5 -703.72418,396.52676 -708.44751,8.62646" /></g><g
           transform="rotate(-90,28909,4022.5)"
           id="g128"><path
             id="path130"
             style="fill:none;stroke:#000000;stroke-width:12;stroke-linecap:round;stroke-linejoin:round;stroke-miterlimit:10;stroke-dasharray:none;stroke-opacity:1"
             d="m -708.5,0 c 0,-391.29376 317.20624,-708.5 708.5,-708.5 391.29376,0 708.5,317.20624 708.5,708.5 C 708.5,391.29376 391.29376,708.5 0,708.5 -391.29376,708.5 -708.5,391.29376 -708.5,0" /></g><g
           transform="rotate(-90,25215.5,63)"
           id="g132"><path
             id="path134"
             style="fill:none;stroke:#000000;stroke-width:12;stroke-linecap:round;stroke-linejoin:round;stroke-miterlimit:10;stroke-dasharray:none;stroke-opacity:1"
             d="M 590.43732,8.60494 C 585.73383,331.33929 322.76862,590.5 0,590.5 -322.76862,590.5 -585.73383,331.33929 -590.43732,8.60494" /></g><g
           transform="rotate(-90,25224,54.5)"
           id="g136"><path
             id="path138"
             style="fill:none;stroke:#000000;stroke-width:12;stroke-linecap:round;stroke-linejoin:round;stroke-miterlimit:10;stroke-dasharray:none;stroke-opacity:1"
             d="m -590.5,0 c 0,-326.12418 264.37582,-590.5 590.5,-590.5 326.12418,0 590.5,264.37582 590.5,590.5 C 590.5,326.12418 326.12418,590.5 0,590.5 -326.12418,590.5 -590.5,326.12418 -590.5,0" /></g><g
           transform="rotate(-90,23785.5,-3185)"
           id="g140"><path
             id="path142"
             style="fill:none;stroke:#000000;stroke-width:12;stroke-linecap:round;stroke-linejoin:round;stroke-miterlimit:10;stroke-dasharray:none;stroke-opacity:1"
             d="M 708.44751,8.62646 C 703.72418,396.52676 387.92905,708.5 0,708.5 -387.92905,708.5 -703.72418,396.52676 -708.44751,8.62646" /></g><g
           transform="rotate(-90,23794.5,-3194)"
           id="g144"><path
             id="path146"
             style="fill:none;stroke:#000000;stroke-width:12;stroke-linecap:round;stroke-linejoin:round;stroke-miterlimit:10;stroke-dasharray:none;stroke-opacity:1"
             d="m -708.5,0 c 0,-391.29376 317.20624,-708.5 708.5,-708.5 391.29376,0 708.5,317.20624 708.5,708.5 C 708.5,391.29376 391.29376,708.5 0,708.5 -391.29376,708.5 -708.5,391.29376 -708.5,0" /></g><g
           transform="rotate(-90,21648,-4330.5)"
           id="g148"><path
             id="path150"
             style="fill:none;stroke:#000000;stroke-width:12;stroke-linecap:round;stroke-linejoin:round;stroke-miterlimit:10;stroke-dasharray:none;stroke-opacity:1"
             d="M 708.44751,8.62646 C 703.72418,396.52676 387.92905,708.5 0,708.5 -387.92905,708.5 -703.72418,396.52676 -708.44751,8.62646" /></g><g
           transform="rotate(-90,21657,-4339.5)"
           id="g152"><path
             id="path154"
             style="fill:none;stroke:#000000;stroke-width:12;stroke-linecap:round;stroke-linejoin:round;stroke-miterlimit:10;stroke-dasharray:none;stroke-opacity:1"
             d="m -708.5,0 c 0,-391.29376 317.20624,-708.5 708.5,-708.5 391.29376,0 708.5,317.20624 708.5,708.5 C 708.5,391.29376 391.29376,708.5 0,708.5 -391.29376,708.5 -708.5,391.29376 -708.5,0" /></g><g
           transform="rotate(-90,16935,-10035.5)"
           id="g156"><path
             id="path158"
             style="fill:none;stroke:#000000;stroke-width:12;stroke-linecap:round;stroke-linejoin:round;stroke-miterlimit:10;stroke-dasharray:none;stroke-opacity:1"
             d="M 708.44751,8.62646 C 703.72418,396.52676 387.92905,708.5 0,708.5 -387.92905,708.5 -703.72418,396.52676 -708.44751,8.62646" /></g><g
           transform="rotate(-90,16944,-10044.5)"
           id="g160"><path
             id="path162"
             style="fill:none;stroke:#000000;stroke-width:12;stroke-linecap:round;stroke-linejoin:round;stroke-miterlimit:10;stroke-dasharray:none;stroke-opacity:1"
             d="m -708.5,0 c 0,-391.29376 317.20624,-708.5 708.5,-708.5 391.29376,0 708.5,317.20624 708.5,708.5 C 708.5,391.29376 391.29376,708.5 0,708.5 -391.29376,708.5 -708.5,391.29376 -708.5,0" /></g><g
           transform="rotate(-90,14797.5,-11181)"
           id="g164"><path
             id="path166"
             style="fill:none;stroke:#000000;stroke-width:12;stroke-linecap:round;stroke-linejoin:round;stroke-miterlimit:10;stroke-dasharray:none;stroke-opacity:1"
             d="M 708.44751,8.62646 C 703.72418,396.52676 387.92905,708.5 0,708.5 -387.92905,708.5 -703.72418,396.52676 -708.44751,8.62646" /></g><g
           transform="rotate(-90,14806.5,-11190)"
           id="g168"><path
             id="path170"
             style="fill:none;stroke:#000000;stroke-width:12;stroke-linecap:round;stroke-linejoin:round;stroke-miterlimit:10;stroke-dasharray:none;stroke-opacity:1"
             d="m -708.5,0 c 0,-391.29376 317.20624,-708.5 708.5,-708.5 391.29376,0 708.5,317.20624 708.5,708.5 C 708.5,391.29376 391.29376,708.5 0,708.5 -391.29376,708.5 -708.5,391.29376 -708.5,0" /></g><g
           transform="rotate(-90,15955,-10732.5)"
           id="g172"><path
             id="path174"
             style="fill:none;stroke:#000000;stroke-width:12;stroke-linecap:round;stroke-linejoin:round;stroke-miterlimit:10;stroke-dasharray:none;stroke-opacity:1"
             d="M 708.44751,8.62646 C 703.72418,396.52676 387.92905,708.5 0,708.5 -387.92905,708.5 -703.72418,396.52676 -708.44751,8.62646" /></g><g
           transform="rotate(-90,15963.5,-10741)"
           id="g176"><path
             id="path178"
             style="fill:none;stroke:#000000;stroke-width:12;stroke-linecap:round;stroke-linejoin:round;stroke-miterlimit:10;stroke-dasharray:none;stroke-opacity:1"
             d="m -708.5,0 c 0,-391.29376 317.20624,-708.5 708.5,-708.5 391.29376,0 708.5,317.20624 708.5,708.5 C 708.5,391.29376 391.29376,708.5 0,708.5 -391.29376,708.5 -708.5,391.29376 -708.5,0" /></g><g
           transform="rotate(-90,16640,-7850.5)"
           id="g180"><path
             id="path182"
             style="fill:none;stroke:#000000;stroke-width:12;stroke-linecap:round;stroke-linejoin:round;stroke-miterlimit:10;stroke-dasharray:none;stroke-opacity:1"
             d="M 708.44751,8.62646 C 703.72418,396.52676 387.92905,708.5 0,708.5 -387.92905,708.5 -703.72418,396.52676 -708.44751,8.62646" /></g><g
           transform="rotate(-90,16649,-7859.5)"
           id="g184"><path
             id="path186"
             style="fill:none;stroke:#000000;stroke-width:12;stroke-linecap:round;stroke-linejoin:round;stroke-miterlimit:10;stroke-dasharray:none;stroke-opacity:1"
             d="m -708.5,0 c 0,-391.29376 317.20624,-708.5 708.5,-708.5 391.29376,0 708.5,317.20624 708.5,708.5 C 708.5,391.29376 391.29376,708.5 0,708.5 -391.29376,708.5 -708.5,391.29376 -708.5,0" /></g><g
           transform="rotate(-90,22049.5,-2819)"
           id="g188"><path
             id="path190"
             style="fill:none;stroke:#000000;stroke-width:12;stroke-linecap:round;stroke-linejoin:round;stroke-miterlimit:10;stroke-dasharray:none;stroke-opacity:1"
             d="M 708.44751,8.62646 C 703.72418,396.52676 387.92905,708.5 0,708.5 -387.92905,708.5 -703.72418,396.52676 -708.44751,8.62646" /></g><g
           transform="rotate(-90,22058.5,-2828)"
           id="g192"><path
             id="path194"
             style="fill:none;stroke:#000000;stroke-width:12;stroke-linecap:round;stroke-linejoin:round;stroke-miterlimit:10;stroke-dasharray:none;stroke-opacity:1"
             d="m -708.5,0 c 0,-391.29376 317.20624,-708.5 708.5,-708.5 391.29376,0 708.5,317.20624 708.5,708.5 C 708.5,391.29376 391.29376,708.5 0,708.5 -391.29376,708.5 -708.5,391.29376 -708.5,0" /></g><g
           transform="rotate(-90,23042,-2110.5)"
           id="g196"><path
             id="path198"
             style="fill:none;stroke:#000000;stroke-width:12;stroke-linecap:round;stroke-linejoin:round;stroke-miterlimit:10;stroke-dasharray:none;stroke-opacity:1"
             d="M 708.44751,8.62646 C 703.72418,396.52676 387.92905,708.5 0,708.5 -387.92905,708.5 -703.72418,396.52676 -708.44751,8.62646" /></g><g
           transform="rotate(-90,23050.5,-2119)"
           id="g200"><path
             id="path202"
             style="fill:none;stroke:#000000;stroke-width:12;stroke-linecap:round;stroke-linejoin:round;stroke-miterlimit:10;stroke-dasharray:none;stroke-opacity:1"
             d="m -708.5,0 c 0,-391.29376 317.20624,-708.5 708.5,-708.5 391.29376,0 708.5,317.20624 708.5,708.5 C 708.5,391.29376 391.29376,708.5 0,708.5 -391.29376,708.5 -708.5,391.29376 -708.5,0" /></g><g
           transform="rotate(-90,28498.5,2520)"
           id="g204"><path
             id="path206"
             style="fill:none;stroke:#000000;stroke-width:12;stroke-linecap:round;stroke-linejoin:round;stroke-miterlimit:10;stroke-dasharray:none;stroke-opacity:1"
             d="M 708.44751,8.62646 C 703.72418,396.52676 387.92905,708.5 0,708.5 -387.92905,708.5 -703.72418,396.52676 -708.44751,8.62646" /></g><g
           transform="rotate(-90,28507.5,2511)"
           id="g208"><path
             id="path210"
             style="fill:none;stroke:#000000;stroke-width:12;stroke-linecap:round;stroke-linejoin:round;stroke-miterlimit:10;stroke-dasharray:none;stroke-opacity:1"
             d="m -708.5,0 c 0,-391.29376 317.20624,-708.5 708.5,-708.5 391.29376,0 708.5,317.20624 708.5,708.5 C 708.5,391.29376 391.29376,708.5 0,708.5 -391.29376,708.5 -708.5,391.29376 -708.5,0" /></g><g
           transform="rotate(-90,30636,3665.5)"
           id="g212"><path
             id="path214"
             style="fill:none;stroke:#000000;stroke-width:12;stroke-linecap:round;stroke-linejoin:round;stroke-miterlimit:10;stroke-dasharray:none;stroke-opacity:1"
             d="M 708.44751,8.62646 C 703.72418,396.52676 387.92905,708.5 0,708.5 -387.92905,708.5 -703.72418,396.52676 -708.44751,8.62646" /></g><g
           transform="rotate(-90,30645,3656.5)"
           id="g216"><path
             id="path218"
             style="fill:none;stroke:#000000;stroke-width:12;stroke-linecap:round;stroke-linejoin:round;stroke-miterlimit:10;stroke-dasharray:none;stroke-opacity:1"
             d="m -708.5,0 c 0,-391.29376 317.20624,-708.5 708.5,-708.5 391.29376,0 708.5,317.20624 708.5,708.5 C 708.5,391.29376 391.29376,708.5 0,708.5 -391.29376,708.5 -708.5,391.29376 -708.5,0" /></g><g
           transform="rotate(-90,37191.5,12701)"
           id="g220"><path
             id="path222"
             style="fill:none;stroke:#000000;stroke-width:12;stroke-linecap:round;stroke-linejoin:round;stroke-miterlimit:10;stroke-dasharray:none;stroke-opacity:1"
             d="M 708.44751,8.62646 C 703.72418,396.52676 387.92905,708.5 0,708.5 -387.92905,708.5 -703.72418,396.52676 -708.44751,8.62646" /></g><g
           transform="rotate(-90,37200.5,12692)"
           id="g224"><path
             id="path226"
             style="fill:none;stroke:#000000;stroke-width:12;stroke-linecap:round;stroke-linejoin:round;stroke-miterlimit:10;stroke-dasharray:none;stroke-opacity:1"
             d="m -708.5,0 c 0,-391.29376 317.20624,-708.5 708.5,-708.5 391.29376,0 708.5,317.20624 708.5,708.5 C 708.5,391.29376 391.29376,708.5 0,708.5 -391.29376,708.5 -708.5,391.29376 -708.5,0" /></g><g
           transform="rotate(-90,35349,9370.5)"
           id="g228"><path
             id="path230"
             style="fill:none;stroke:#000000;stroke-width:12;stroke-linecap:round;stroke-linejoin:round;stroke-miterlimit:10;stroke-dasharray:none;stroke-opacity:1"
             d="M 708.44751,8.62646 C 703.72418,396.52676 387.92905,708.5 0,708.5 -387.92905,708.5 -703.72418,396.52676 -708.44751,8.62646" /></g><g
           transform="rotate(-90,35358,9361.5)"
           id="g232"><path
             id="path234"
             style="fill:none;stroke:#000000;stroke-width:12;stroke-linecap:round;stroke-linejoin:round;stroke-miterlimit:10;stroke-dasharray:none;stroke-opacity:1"
             d="m -708.5,0 c 0,-391.29376 317.20624,-708.5 708.5,-708.5 391.29376,0 708.5,317.20624 708.5,708.5 C 708.5,391.29376 391.29376,708.5 0,708.5 -391.29376,708.5 -708.5,391.29376 -708.5,0" /></g><g
           transform="rotate(-90,38916.5,13764)"
           id="g236"><path
             id="path238"
             style="fill:none;stroke:#000000;stroke-width:12;stroke-linecap:round;stroke-linejoin:round;stroke-miterlimit:10;stroke-dasharray:none;stroke-opacity:1"
             d="M 590.43732,8.60494 C 585.73383,331.33929 322.76862,590.5 0,590.5 -322.76862,590.5 -585.73383,331.33929 -590.43732,8.60494" /></g><g
           transform="rotate(-90,38925,13755.5)"
           id="g240"><path
             id="path242"
             style="fill:none;stroke:#000000;stroke-width:12;stroke-linecap:round;stroke-linejoin:round;stroke-miterlimit:10;stroke-dasharray:none;stroke-opacity:1"
             d="m -590.5,0 c 0,-326.12418 264.37582,-590.5 590.5,-590.5 326.12418,0 590.5,264.37582 590.5,590.5 C 590.5,326.12418 326.12418,590.5 0,590.5 -326.12418,590.5 -590.5,326.12418 -590.5,0" /></g><g
           transform="rotate(-90,36506.5,9819)"
           id="g244"><path
             id="path246"
             style="fill:none;stroke:#000000;stroke-width:12;stroke-linecap:round;stroke-linejoin:round;stroke-miterlimit:10;stroke-dasharray:none;stroke-opacity:1"
             d="M 708.44751,8.62646 C 703.72418,396.52676 387.92905,708.5 0,708.5 -387.92905,708.5 -703.72418,396.52676 -708.44751,8.62646" /></g><g
           transform="rotate(-90,36515,9810.5)"
           id="g248"><path
             id="path250"
             style="fill:none;stroke:#000000;stroke-width:12;stroke-linecap:round;stroke-linejoin:round;stroke-miterlimit:10;stroke-dasharray:none;stroke-opacity:1"
             d="m -708.5,0 c 0,-391.29376 317.20624,-708.5 708.5,-708.5 391.29376,0 708.5,317.20624 708.5,708.5 C 708.5,391.29376 391.29376,708.5 0,708.5 -391.29376,708.5 -708.5,391.29376 -708.5,0" /></g><g
           transform="rotate(-90,36743,11590.5)"
           id="g252"><path
             id="path254"
             style="fill:none;stroke:#000000;stroke-width:12;stroke-linecap:round;stroke-linejoin:round;stroke-miterlimit:10;stroke-dasharray:none;stroke-opacity:1"
             d="M 708.44751,8.62646 C 703.72418,396.52676 387.92905,708.5 0,708.5 -387.92905,708.5 -703.72418,396.52676 -708.44751,8.62646" /></g><g
           transform="rotate(-90,36751.5,11582)"
           id="g256"><path
             id="path258"
             style="fill:none;stroke:#000000;stroke-width:12;stroke-linecap:round;stroke-linejoin:round;stroke-miterlimit:10;stroke-dasharray:none;stroke-opacity:1"
             d="m -708.5,0 c 0,-391.29376 317.20624,-708.5 708.5,-708.5 391.29376,0 708.5,317.20624 708.5,708.5 C 708.5,391.29376 391.29376,708.5 0,708.5 -391.29376,708.5 -708.5,391.29376 -708.5,0" /></g><g
           transform="rotate(-90,31085,4775.5)"
           id="g260"><path
             id="path262"
             style="fill:none;stroke:#000000;stroke-width:12;stroke-linecap:round;stroke-linejoin:round;stroke-miterlimit:10;stroke-dasharray:none;stroke-opacity:1"
             d="M 708.44751,8.62646 C 703.72418,396.52676 387.92905,708.5 0,708.5 -387.92905,708.5 -703.72418,396.52676 -708.44751,8.62646" /></g><g
           transform="rotate(-90,31093.5,4767)"
           id="g264"><path
             id="path266"
             style="fill:none;stroke:#000000;stroke-width:12;stroke-linecap:round;stroke-linejoin:round;stroke-miterlimit:10;stroke-dasharray:none;stroke-opacity:1"
             d="m -708.5,0 c 0,-391.29376 317.20624,-708.5 708.5,-708.5 391.29376,0 708.5,317.20624 708.5,708.5 C 708.5,391.29376 391.29376,708.5 0,708.5 -391.29376,708.5 -708.5,391.29376 -708.5,0" /></g><g
           transform="rotate(-90,29656,2968.5)"
           id="g268"><path
             id="path270"
             style="fill:none;stroke:#000000;stroke-width:12;stroke-linecap:round;stroke-linejoin:round;stroke-miterlimit:10;stroke-dasharray:none;stroke-opacity:1"
             d="M 708.44751,8.62646 C 703.72418,396.52676 387.92905,708.5 0,708.5 -387.92905,708.5 -703.72418,396.52676 -708.44751,8.62646" /></g><g
           transform="rotate(-90,29664.5,2960)"
           id="g272"><path
             id="path274"
             style="fill:none;stroke:#000000;stroke-width:12;stroke-linecap:round;stroke-linejoin:round;stroke-miterlimit:10;stroke-dasharray:none;stroke-opacity:1"
             d="m -708.5,0 c 0,-391.29376 317.20624,-708.5 708.5,-708.5 391.29376,0 708.5,317.20624 708.5,708.5 C 708.5,391.29376 391.29376,708.5 0,708.5 -391.29376,708.5 -708.5,391.29376 -708.5,0" /></g><g
           transform="rotate(-90,23490.5,-1000)"
           id="g276"><path
             id="path278"
             style="fill:none;stroke:#000000;stroke-width:12;stroke-linecap:round;stroke-linejoin:round;stroke-miterlimit:10;stroke-dasharray:none;stroke-opacity:1"
             d="M 708.44751,8.62646 C 703.72418,396.52676 387.92905,708.5 0,708.5 -387.92905,708.5 -703.72418,396.52676 -708.44751,8.62646" /></g><g
           transform="rotate(-90,23499.5,-1009)"
           id="g280"><path
             id="path282"
             style="fill:none;stroke:#000000;stroke-width:12;stroke-linecap:round;stroke-linejoin:round;stroke-miterlimit:10;stroke-dasharray:none;stroke-opacity:1"
             d="m -708.5,0 c 0,-391.29376 317.20624,-708.5 708.5,-708.5 391.29376,0 708.5,317.20624 708.5,708.5 C 708.5,391.29376 391.29376,708.5 0,708.5 -391.29376,708.5 -708.5,391.29376 -708.5,0" /></g><g
           transform="rotate(-90,22805.5,-3882)"
           id="g284"><path
             id="path286"
             style="fill:none;stroke:#000000;stroke-width:12;stroke-linecap:round;stroke-linejoin:round;stroke-miterlimit:10;stroke-dasharray:none;stroke-opacity:1"
             d="M 708.44751,8.62646 C 703.72418,396.52676 387.92905,708.5 0,708.5 -387.92905,708.5 -703.72418,396.52676 -708.44751,8.62646" /></g><g
           transform="rotate(-90,22814,-3890.5)"
           id="g288"><path
             id="path290"
             style="fill:none;stroke:#000000;stroke-width:12;stroke-linecap:round;stroke-linejoin:round;stroke-miterlimit:10;stroke-dasharray:none;stroke-opacity:1"
             d="m -708.5,0 c 0,-391.29376 317.20624,-708.5 708.5,-708.5 391.29376,0 708.5,317.20624 708.5,708.5 C 708.5,391.29376 391.29376,708.5 0,708.5 -391.29376,708.5 -708.5,391.29376 -708.5,0" /></g><g
           transform="rotate(-90,18365,-6787.5)"
           id="g292"><path
             id="path294"
             style="fill:none;stroke:#000000;stroke-width:12;stroke-linecap:round;stroke-linejoin:round;stroke-miterlimit:10;stroke-dasharray:none;stroke-opacity:1"
             d="M 590.43732,8.60494 C 585.73383,331.33929 322.76862,590.5 0,590.5 -322.76862,590.5 -585.73383,331.33929 -590.43732,8.60494" /></g><g
           transform="rotate(-90,18373.5,-6796)"
           id="g296"><path
             id="path298"
             style="fill:none;stroke:#000000;stroke-width:12;stroke-linecap:round;stroke-linejoin:round;stroke-miterlimit:10;stroke-dasharray:none;stroke-opacity:1"
             d="m -590.5,0 c 0,-326.12418 264.37582,-590.5 590.5,-590.5 326.12418,0 590.5,264.37582 590.5,590.5 C 590.5,326.12418 326.12418,590.5 0,590.5 -326.12418,590.5 -590.5,326.12418 -590.5,0" /></g><g
           transform="rotate(-90,16191.5,-8961)"
           id="g300"><path
             id="path302"
             style="fill:none;stroke:#000000;stroke-width:12;stroke-linecap:round;stroke-linejoin:round;stroke-miterlimit:10;stroke-dasharray:none;stroke-opacity:1"
             d="M 708.44751,8.62646 C 703.72418,396.52676 387.92905,708.5 0,708.5 -387.92905,708.5 -703.72418,396.52676 -708.44751,8.62646" /></g><g
           transform="rotate(-90,16200,-8969.5)"
           id="g304"><path
             id="path306"
             style="fill:none;stroke:#000000;stroke-width:12;stroke-linecap:round;stroke-linejoin:round;stroke-miterlimit:10;stroke-dasharray:none;stroke-opacity:1"
             d="m -708.5,0 c 0,-391.29376 317.20624,-708.5 708.5,-708.5 391.29376,0 708.5,317.20624 708.5,708.5 C 708.5,391.29376 391.29376,708.5 0,708.5 -391.29376,708.5 -708.5,391.29376 -708.5,0" /></g><g
           transform="rotate(-90,14042,-10118.5)"
           id="g308"><path
             id="path310"
             style="fill:none;stroke:#000000;stroke-width:12;stroke-linecap:round;stroke-linejoin:round;stroke-miterlimit:10;stroke-dasharray:none;stroke-opacity:1"
             d="M 708.44751,8.62646 C 703.72418,396.52676 387.92905,708.5 0,708.5 -387.92905,708.5 -703.72418,396.52676 -708.44751,8.62646" /></g><g
           transform="rotate(-90,14050.5,-10127)"
           id="g312"><path
             id="path314"
             style="fill:none;stroke:#000000;stroke-width:12;stroke-linecap:round;stroke-linejoin:round;stroke-miterlimit:10;stroke-dasharray:none;stroke-opacity:1"
             d="m -708.5,0 c 0,-391.29376 317.20624,-708.5 708.5,-708.5 391.29376,0 708.5,317.20624 708.5,708.5 C 708.5,391.29376 391.29376,708.5 0,708.5 -391.29376,708.5 -708.5,391.29376 -708.5,0" /></g><path
           id="path316"
           style="fill:none;stroke:#000000;stroke-width:12;stroke-linecap:round;stroke-linejoin:round;stroke-miterlimit:10;stroke-dasharray:none;stroke-opacity:1"
           d="m 18279,852 h 3 7 11 15 18 22 25 28 32 35 38 40 43 45 47 49 50 51 53 53 54 54" /><path
           id="path318"
           style="fill:none;stroke:#000000;stroke-width:12;stroke-linecap:round;stroke-linejoin:round;stroke-miterlimit:10;stroke-dasharray:none;stroke-opacity:1"
           d="m 31286,55656 h -12234 -54 -54 -53 -53 -51 -50 -49 -47 -45 -43 -40 -38 -35 -32 -28 -25 -22 -18 -15 -11 -7 -3 V 852" /><path
           id="path320"
           style="fill:none;stroke:#000000;stroke-width:12;stroke-linecap:round;stroke-linejoin:round;stroke-miterlimit:10;stroke-dasharray:none;stroke-opacity:1"
           d="M 31286,55656 V 852 H 19052" /></g></g><g
       id="g322"
       transform="translate(-2595.9635,-210.92774)"><g
         clip-path="url(#clipPath328-5)"
         id="g324"><path
           id="path330"
           style="fill:none;stroke:#000000;stroke-width:12;stroke-linecap:round;stroke-linejoin:round;stroke-miterlimit:10;stroke-dasharray:none;stroke-opacity:1"
           d="m 18280,55656 h 9" /><path
           id="path332"
           style="fill:none;stroke:#000000;stroke-width:12;stroke-linecap:round;stroke-linejoin:round;stroke-miterlimit:10;stroke-dasharray:none;stroke-opacity:1"
           d="m 18289,852 h -9" /><path
           id="path334"
           style="fill:none;stroke:#000000;stroke-width:12;stroke-linecap:round;stroke-linejoin:round;stroke-miterlimit:10;stroke-dasharray:none;stroke-opacity:1"
           d="m 12138,852 v 54804 h 6142 V 852 h -6142" /><path
           id="path336"
           style="fill:none;stroke:#000000;stroke-width:12;stroke-linecap:round;stroke-linejoin:round;stroke-miterlimit:10;stroke-dasharray:none;stroke-opacity:1"
           d="M 18289,55656 V 852" /></g></g></g></svg>